<svg width="420" height="455" viewBox="0 0 420 455" fill="none" xmlns="http://www.w3.org/2000/svg">
<path d="M202.543 85.6234C202.709 86.0554 202.839 86.5002 202.933 86.9535C202.844 86.4991 202.713 86.0538 202.543 85.6234ZM201.083 83.3935C201.388 83.7021 201.665 84.0367 201.913 84.3935C201.673 84.0308 201.395 83.6954 201.083 83.3935ZM192.233 82.3935H192.173C192.233 82.3678 192.291 82.3341 192.343 82.2935L192.233 82.3935Z" fill="white"/>
<path d="M202.953 403.883C202.873 404.113 202.803 404.344 202.713 404.554C200.845 409.741 198.034 414.538 194.423 418.703L194.363 418.763C187.643 426.563 178.453 432.364 168.633 436.494C162.32 439.137 155.77 441.176 149.073 442.583C148.342 442.719 147.604 442.805 146.863 442.844H146.793C142.243 443.144 139.523 441.554 137.993 438.934L137.913 438.804C136.732 436.408 136.178 433.752 136.303 431.083C136.298 431.047 136.298 431.01 136.303 430.974V430.633C136.297 430.614 136.297 430.593 136.303 430.573C136.383 425.413 137.753 419.673 138.813 415.573C138.923 415.273 139.053 414.933 139.173 414.573C140.343 411.133 142.173 404.774 144.603 400.214C144.653 400.124 144.703 400.014 144.763 399.924C144.77 399.892 144.787 399.864 144.813 399.844C146.463 396.844 148.413 394.764 150.643 394.934C157.14 396.318 163.721 397.284 170.343 397.823H170.473C170.683 397.823 170.903 397.823 171.123 397.883C177.633 398.453 184.123 398.754 190.703 399.034C193.483 399.164 196.253 399.284 199.023 399.434C199.738 399.322 200.47 399.43 201.123 399.744L201.403 399.914C201.474 399.961 201.541 400.014 201.603 400.073C201.644 400.109 201.681 400.149 201.713 400.194C201.713 400.194 201.713 400.194 201.773 400.194C201.776 400.206 201.783 400.218 201.791 400.229C201.8 400.239 201.811 400.247 201.823 400.254C201.878 400.31 201.925 400.374 201.963 400.444L202.023 400.524L202.163 400.734C202.504 401.443 202.711 402.209 202.773 402.994C202.903 403.304 202.923 403.583 202.953 403.883Z" fill="#F3DFC8"/>
<path d="M192.233 82.4236H192.303C192.251 82.4643 192.193 82.4979 192.133 82.5236L192.233 82.4236Z" fill="white"/>
<path d="M201.083 83.3936C201.395 83.6955 201.673 84.0309 201.913 84.3936C201.666 84.0368 201.388 83.7022 201.083 83.3936Z" fill="white"/>
<path d="M202.933 86.9536C202.839 86.5003 202.709 86.0555 202.543 85.6235C202.713 86.0539 202.844 86.4992 202.933 86.9536Z" fill="white"/>
<path d="M138.823 415.584C137.763 419.694 136.393 425.434 136.313 430.584C136.323 430.289 136.353 429.995 136.403 429.704C136.858 424.578 137.789 419.507 139.183 414.554C139.063 414.944 138.933 415.284 138.823 415.584ZM137.993 438.954C139.523 441.574 142.243 443.164 146.793 442.864C142.893 442.804 139.793 441.624 137.993 438.954ZM150.693 394.854C148.463 394.684 146.513 396.784 144.863 399.764C146.613 396.764 148.593 394.864 150.693 394.864C156.624 396.183 162.638 397.098 168.693 397.604C169.233 397.664 169.793 397.694 170.343 397.744C163.738 397.202 157.174 396.236 150.693 394.854ZM175.963 332.164C174.952 337.236 174.327 342.377 174.093 347.544C174.753 338.314 176.433 329.544 180.333 322.544C178.477 325.554 177.009 328.786 175.963 332.164ZM168.823 436.444L168.663 436.524C178.483 432.394 187.663 426.594 194.393 418.794C188.083 424.974 178.453 431.664 168.823 436.424V436.444ZM199.063 399.384C196.293 399.234 193.523 399.114 190.743 398.984L191.793 399.044H191.983C195.063 399.214 198.113 399.424 201.163 399.684C200.511 399.366 199.779 399.255 199.063 399.364V399.384ZM202.853 403.034C202.865 403.551 202.818 404.067 202.713 404.574C202.803 404.364 202.873 404.134 202.953 403.904C203.033 403.674 202.903 403.304 202.853 403.014V403.034ZM196.763 308.974C200.873 307.671 205.152 306.977 209.463 306.914C210.813 306.914 212.113 307.034 213.373 307.164C207.773 306.387 202.068 307.002 196.763 308.954V308.974ZM209.463 386.164C206.043 386.164 202.633 386.164 199.203 386.074C206.043 386.287 212.883 386.287 219.723 386.074C216.303 386.164 212.893 386.164 209.463 386.164ZM244.893 384.484C244.893 382.664 244.893 380.844 244.893 379.034C244.883 380.874 244.873 382.704 244.893 384.464V384.484ZM238.103 321.724C242.403 328.934 244.203 338.134 244.873 347.874C245.763 337.254 243.003 328.424 238.103 321.704V321.724ZM270.463 395.724C270.751 395.918 271.028 396.129 271.293 396.354C271.038 396.095 270.76 395.861 270.463 395.654V395.724ZM268.253 394.924C264.343 395.784 260.443 396.434 256.503 396.924C260.443 396.414 264.343 395.764 268.253 394.924C268.709 394.974 269.156 395.085 269.583 395.254C269.165 395.048 268.715 394.912 268.253 394.854V394.924Z" fill="#553615"/>
<path d="M416.073 292.453C407.953 262.883 388.073 238.744 361.993 223.134C360.123 221.984 360.113 220.654 360.113 218.924C360.113 195.924 360.003 172.924 360.113 149.924C360.693 95.5535 315.543 47.5035 261.853 42.8135C247.173 41.3135 232.473 42.5835 217.623 42.2935V34.0535C226.913 36.5435 235.093 29.7635 238.053 21.4235C243.253 4.98352 221.563 -8.1165 209.503 6.0035C197.443 -8.1165 175.743 5.00352 180.943 21.4235C183.943 29.7635 192.083 36.5435 201.373 34.0535V42.2935C186.523 42.5735 171.813 41.2935 157.143 42.8135C103.463 47.4935 58.3126 95.5535 58.8926 149.924C58.9926 172.924 58.8926 195.924 58.8926 218.924C59.0626 224.924 47.1926 227.794 43.3726 232.414C16.2526 254.474 -4.35741 288.873 0.792594 324.883C2.61259 335.223 10.3626 341.074 20.4526 339.064C36.4526 335.694 50.0926 325.714 60.4526 313.064C71.6926 352.164 95.8926 378.704 134.743 391.314C94.2926 471.314 168.883 469.223 209.303 421.013C209.362 421.072 209.415 421.135 209.463 421.203L209.623 421.013C250.143 469.303 324.623 471.254 284.183 391.314C323.043 378.704 347.283 352.174 358.573 313.104C389.963 349.714 431.693 351.913 416.073 292.453ZM58.6926 289.814C54.2826 305.524 39.9526 317.194 25.6926 324.364C17.0626 328.364 13.0026 325.684 12.8026 316.124C11.6326 282.244 32.6726 256.124 57.9326 236.374L58.8226 237.134C58.8026 254.684 58.9126 272.254 58.6926 289.814ZM228.103 12.6835C232.303 18.1935 226.103 26.2835 219.663 24.7535C217.976 24.4384 216.461 23.5214 215.4 22.1732C214.338 20.8249 213.803 19.1371 213.893 17.4235C213.623 9.59352 223.913 6.6935 228.103 12.6835ZM200.693 24.3535C200.244 24.5345 199.778 24.6685 199.303 24.7535C188.573 26.6935 185.373 9.90351 197.303 9.43351C205.093 8.83351 208.223 21.4335 200.693 24.3535ZM81.7826 331.874C131.033 299.404 70.6926 205.053 130.623 186.684C132.812 185.963 135.061 185.437 137.343 185.114V378.044C113.543 370.584 92.9326 355.374 81.7826 331.874ZM209.463 294.874C157.073 299.394 162.463 343.874 162.983 382.994C155.072 382.333 147.247 380.885 139.623 378.674V184.864C164.123 182.864 184.173 204.994 209.463 203.394C235.133 205.014 255.383 182.253 280.393 184.964V378.383C272.36 380.501 264.191 382.058 255.943 383.044C256.433 343.934 261.833 299.434 209.463 294.924V294.874ZM202.693 404.554C202.369 406.025 201.886 407.457 201.253 408.823C200.563 411.613 198.053 415.064 194.403 418.684L194.343 418.744C187.623 426.544 178.433 432.344 168.613 436.474C160.733 440.344 152.843 442.913 146.843 442.823H146.773C142.223 443.123 139.503 441.534 137.973 438.914L137.893 438.784C136.545 436.448 135.981 433.743 136.283 431.064C136.278 431.027 136.278 430.99 136.283 430.953V430.614C136.277 430.594 136.277 430.573 136.283 430.554C136.363 425.394 137.733 419.654 138.793 415.554C138.903 415.254 139.033 414.914 139.153 414.554C140.408 409.55 142.269 404.718 144.693 400.164C144.743 400.074 144.793 399.964 144.853 399.874C144.859 399.842 144.877 399.814 144.903 399.794C146.553 396.794 148.503 394.713 150.733 394.883C157.23 396.268 163.811 397.234 170.433 397.773H170.563C170.773 397.773 170.993 397.773 171.213 397.833C177.723 398.363 184.283 398.634 190.793 398.984C193.573 399.114 196.343 399.233 199.113 399.383C199.828 399.271 200.56 399.38 201.213 399.694H201.333C201.404 399.736 201.469 399.79 201.523 399.854C201.594 399.901 201.661 399.954 201.723 400.013C201.764 400.049 201.801 400.089 201.833 400.133C201.833 400.133 201.833 400.133 201.893 400.133C201.896 400.146 201.903 400.158 201.911 400.169C201.92 400.179 201.931 400.187 201.943 400.194C201.998 400.25 202.045 400.314 202.083 400.383L202.143 400.464L202.283 400.674C202.699 401.352 202.911 402.137 202.893 402.934C202.943 403.224 202.963 403.504 202.993 403.804C203.023 404.104 202.803 404.344 202.693 404.554ZM199.183 386.054H198.963C198.033 386.054 197.093 386.053 196.163 385.964C188.773 385.733 181.403 385.254 174.013 384.464C174.143 373.464 173.193 360.234 174.013 347.874C174.013 347.744 174.013 347.633 174.013 347.523C174.274 342.362 174.926 337.227 175.963 332.164C177.012 328.799 178.48 325.581 180.333 322.583C180.383 322.493 180.443 322.413 180.483 322.333C183.962 316.003 189.728 311.242 196.603 309.023L196.763 308.974C202.067 307.015 207.771 306.393 213.373 307.164H213.733C225.923 308.464 233.463 313.893 238.093 321.643C242.993 328.363 245.753 337.194 244.863 347.794C245.573 358.004 245.023 368.793 244.863 378.453V378.924C244.863 380.734 244.863 382.554 244.863 384.374C237.483 385.164 230.103 385.644 222.723 385.874C221.783 385.924 220.853 385.944 219.913 385.964H219.693C212.886 386.237 206.056 386.267 199.203 386.054H199.183ZM279.923 440.344C279.713 440.544 279.503 440.744 279.293 440.924C278.843 441.308 278.353 441.643 277.833 441.924C277.279 442.2 276.7 442.421 276.103 442.583C275.624 442.717 275.136 442.811 274.643 442.864C273.042 443.046 271.422 442.975 269.843 442.654L267.843 442.234L265.843 441.773C265.683 441.773 265.513 441.703 265.353 441.654C264.353 441.423 263.403 441.163 262.423 440.893C262.263 440.893 262.103 440.804 261.943 440.744L259.943 440.174C259.293 439.994 258.653 439.783 258.003 439.573C256.713 439.143 255.433 438.704 254.153 438.224C253.033 437.814 251.923 437.363 250.823 436.904L250.373 436.703C249.883 436.503 249.373 436.283 248.913 436.073C248.033 435.673 247.163 435.274 246.303 434.854C245.813 434.624 245.303 434.374 244.823 434.124L244.613 434.023C244.073 433.743 243.563 433.474 243.033 433.174C242.603 432.964 242.163 432.714 241.743 432.474L241.473 432.314L239.473 431.154L237.843 430.154L236.233 429.073L236.083 428.974L234.733 427.974L234.043 427.474C233.733 427.254 233.443 427.024 233.143 426.804L232.833 426.554L232.213 426.073L231.653 425.614C230.986 425.087 230.346 424.547 229.733 423.994C229.223 423.554 228.733 423.103 228.243 422.633C227.753 422.163 227.243 421.734 226.803 421.244C226.393 420.834 225.983 420.404 225.593 419.974C225.203 419.544 224.793 419.114 224.423 418.674C224.293 418.544 224.193 418.424 224.073 418.294C223.803 417.974 223.533 417.654 223.283 417.294C223.033 416.934 222.593 416.484 222.283 416.064L222.083 415.804C221.893 415.584 221.723 415.353 221.553 415.133L221.123 414.513L220.603 413.794C220.523 413.695 220.449 413.591 220.383 413.484C220.28 413.35 220.187 413.21 220.103 413.064C219.763 412.584 219.443 412.064 219.103 411.583C218.763 411.103 218.473 410.584 218.183 410.064C217.893 409.544 217.503 408.874 217.183 408.273C217.003 407.853 216.843 407.434 216.693 407.004C216.543 406.574 216.413 406.114 216.293 405.664C216.127 405.007 216.013 404.338 215.953 403.664C215.753 400.954 216.803 398.743 220.753 399.284L223.753 399.143C225.753 399.053 227.753 398.954 229.703 398.874L232.623 398.744C235.543 398.604 238.473 398.443 241.383 398.263C243.329 398.13 245.273 397.983 247.213 397.823C249.153 397.653 251.083 397.474 253.023 397.254C254.133 397.134 255.233 397.004 256.343 396.854C260.283 396.334 264.183 395.684 268.093 394.854C268.552 394.893 269.001 395.008 269.423 395.194C269.573 395.255 269.72 395.325 269.863 395.404C270.014 395.477 270.161 395.561 270.303 395.654C270.597 395.838 270.875 396.049 271.133 396.284C271.28 396.402 271.42 396.529 271.553 396.664C278.203 403.124 282.373 424.874 282.493 431.564C282.833 435.254 281.923 438.333 279.943 440.344H279.923ZM304.063 368.263C297.392 372.357 290.206 375.542 282.693 377.734V185.284C284.602 185.609 286.483 186.077 288.323 186.684C348.253 205.023 287.923 299.444 337.163 331.874C329.769 346.867 318.305 359.477 304.083 368.263H304.063ZM346.273 305.344C345.273 311.984 342.903 318.414 340.883 325.854C300.453 295.984 343.323 223.614 309.093 191.234C294.903 178.134 277.923 175.084 259.413 177.504C242.103 179.574 227.083 191.784 209.413 191.354C191.773 191.784 176.763 179.574 159.413 177.504C140.913 175.084 123.923 178.134 109.743 191.234C75.4926 223.614 118.363 295.984 77.9526 325.854C75.9526 318.414 73.5226 311.984 72.5626 305.344C70.3726 252.944 72.0326 200.254 71.5626 147.784C71.6526 101.014 110.673 60.9035 156.423 55.5935C173.973 54.1135 191.753 55.1935 209.373 54.8135C226.993 55.1935 244.783 54.1135 262.373 55.5935C308.123 60.8935 347.153 101.024 347.243 147.784C346.813 200.254 348.483 252.944 346.293 305.344H346.273ZM406.143 316.164C405.143 343.464 367.483 307.163 362.853 297.013C361.513 294.893 360.273 292.254 360.243 289.854C360.023 272.294 360.123 254.724 360.123 237.174L361.013 236.414C386.273 256.164 407.323 282.244 406.143 316.164Z" fill="#553615"/>
<path d="M58.6927 289.814C54.2827 305.524 39.9527 317.194 25.6927 324.364C17.0627 328.364 13.0027 325.684 12.8027 316.124C11.6327 282.244 32.6727 256.124 57.9327 236.374L58.8227 237.134C58.8027 254.684 58.9127 272.254 58.6927 289.814Z" fill="#F3DFC8"/>
<path d="M406.143 316.164C405.143 343.464 367.483 307.164 362.853 297.014C361.513 294.894 360.273 292.254 360.243 289.854C360.023 272.294 360.123 254.724 360.123 237.174L361.013 236.414C386.273 256.164 407.323 282.244 406.143 316.164Z" fill="#F3DFC8"/>
<path d="M200.693 24.3536C200.244 24.5345 199.778 24.6686 199.303 24.7536C188.573 26.6936 185.373 9.90357 197.303 9.43357C205.093 8.83357 208.223 21.4336 200.693 24.3536Z" fill="#F3DFC8"/>
<path d="M219.693 24.7534C218.006 24.4383 216.491 23.5214 215.43 22.1731C214.368 20.8248 213.833 19.137 213.923 17.4235C213.653 9.59346 223.923 6.69344 228.133 12.6834C232.303 18.1634 226.063 26.2834 219.693 24.7534Z" fill="#F3DFC8"/>
<path d="M137.343 185.164V378.044C113.543 370.584 92.9327 355.374 81.7827 331.874C131.033 299.404 70.6927 205.054 130.623 186.684C132.813 185.98 135.062 185.471 137.343 185.164Z" fill="white"/>
<path d="M280.393 184.964V378.384C272.36 380.501 264.191 382.058 255.943 383.044C256.433 343.934 261.833 299.434 209.463 294.924C157.073 299.444 162.463 343.924 162.983 383.044C155.072 382.383 147.247 380.935 139.623 378.724V184.864C164.123 182.864 184.173 204.994 209.463 203.394C235.133 205.014 255.383 182.254 280.393 184.964Z" fill="white"/>
<path d="M337.143 331.874C329.754 346.865 318.298 359.475 304.083 368.264C297.406 372.359 290.213 375.544 282.693 377.734V185.284C284.602 185.61 286.483 186.077 288.323 186.684C348.233 205.024 287.903 299.444 337.143 331.874Z" fill="white"/>
<path d="M347.283 147.784C347.193 101.024 308.163 60.8936 262.413 55.5936C244.873 54.1136 227.083 55.1936 209.413 54.8136C191.793 55.1936 174.013 54.1136 156.463 55.5936C110.713 60.9036 71.6926 101.014 71.6026 147.784C72.0626 200.254 70.4026 252.944 72.6026 305.344C73.6026 311.984 75.9726 318.414 77.9926 325.854C118.403 295.984 75.5326 223.614 109.783 191.234C123.963 178.134 140.953 175.084 159.453 177.504C176.773 179.574 191.783 191.784 209.453 191.354C227.093 191.784 242.113 179.574 259.453 177.504C277.963 175.084 294.943 178.134 309.133 191.234C343.363 223.614 300.493 295.984 340.923 325.854C342.923 318.414 345.353 311.984 346.313 305.344C348.483 252.944 346.813 200.254 347.283 147.784ZM126.583 169.694C104.393 168.694 104.393 135.284 126.743 134.634C149.453 135.394 149.043 168.604 126.583 169.694ZM203.063 88.4137C203.303 97.7636 188.433 97.4836 188.833 88.2736C188.784 87.1541 189.037 86.042 189.564 85.0535C190.092 84.0649 190.875 83.2361 191.833 82.6536C191.851 82.6305 191.875 82.6131 191.903 82.6037L192.073 82.5036C192.135 82.4707 192.195 82.4339 192.253 82.3937L192.543 82.2637C192.689 82.1891 192.839 82.1224 192.993 82.0636C193.287 81.9539 193.588 81.8604 193.893 81.7836C194.054 81.7398 194.217 81.7063 194.383 81.6836L194.733 81.6236L195.303 81.5737C195.503 81.5737 195.683 81.5737 195.883 81.5737C196.763 81.5716 197.638 81.7135 198.473 81.9936C198.887 82.1202 199.285 82.2912 199.663 82.5036C199.852 82.6074 200.035 82.7209 200.213 82.8436C200.57 83.0862 200.905 83.3607 201.213 83.6637C201.353 83.8137 201.493 83.9836 201.633 84.1536C201.766 84.3231 201.889 84.5001 202.003 84.6836C202.104 84.8471 202.195 85.0175 202.273 85.1936C202.309 85.2575 202.339 85.3244 202.363 85.3937C202.412 85.4978 202.455 85.6046 202.493 85.7136C202.537 85.8141 202.574 85.9177 202.603 86.0236C202.651 86.1493 202.685 86.2802 202.703 86.4137C202.741 86.513 202.765 86.6174 202.773 86.7236C202.824 86.9267 202.854 87.1345 202.863 87.3436C202.883 87.5999 202.883 87.8574 202.863 88.1137L203.063 88.4137ZM215.873 88.4137C215.563 79.2337 230.083 79.2236 230.113 88.2736C230.523 97.4836 215.693 97.7636 215.873 88.4137ZM292.343 169.694C269.893 168.604 269.473 135.394 292.183 134.634C314.523 135.284 314.533 168.724 292.343 169.694Z" fill="#F3DFC8"/>
<path d="M203.023 87.3135C203.009 87.1048 202.979 86.8975 202.933 86.6935C202.92 86.588 202.897 86.4841 202.863 86.3835C202.841 86.2507 202.808 86.1202 202.763 85.9934C202.731 85.8873 202.69 85.7837 202.643 85.6834C202.61 85.574 202.57 85.4671 202.523 85.3635C202.494 85.2916 202.46 85.2215 202.423 85.1535C202.343 84.9816 202.253 84.8147 202.153 84.6535C202.038 84.4688 201.911 84.2918 201.773 84.1235C201.644 83.9511 201.503 83.7874 201.353 83.6335C201.045 83.3299 200.711 83.0553 200.353 82.8135C200.163 82.6835 199.983 82.5735 199.803 82.4735C199.42 82.2637 199.018 82.0897 198.603 81.9535C197.767 81.6806 196.892 81.5422 196.013 81.5435H195.443L194.873 81.5935L194.513 81.6535C194.347 81.6762 194.184 81.7096 194.023 81.7535C193.717 81.8285 193.417 81.922 193.123 82.0335L192.663 82.2235L192.373 82.3635C192.321 82.4041 192.264 82.4377 192.203 82.4634L192.033 82.5635H191.963C191.009 83.1523 190.229 83.9837 189.702 84.9729C189.175 85.9621 188.92 87.0735 188.963 88.1935C188.563 97.4035 203.433 97.6835 203.193 88.3335V88.0035C203.149 87.7705 203.092 87.5401 203.023 87.3135ZM201.083 83.3935C201.395 83.6954 201.673 84.0308 201.913 84.3935C201.666 84.0367 201.388 83.7021 201.083 83.3935ZM202.543 85.6235C202.713 86.0539 202.844 86.4991 202.933 86.9535C202.839 86.5002 202.709 86.0554 202.543 85.6235Z" fill="#553615"/>
<path d="M126.753 134.634C104.403 135.284 104.403 168.724 126.593 169.694C149.043 168.594 149.453 135.394 126.753 134.634ZM132.033 146.374C131.923 147.383 131.496 148.332 130.813 149.084C130.354 149.624 129.782 150.057 129.137 150.352C128.493 150.648 127.791 150.798 127.083 150.794C126.364 150.845 125.643 150.732 124.974 150.464C124.305 150.195 123.706 149.778 123.223 149.244L123.163 149.184C122.715 148.748 122.358 148.227 122.114 147.652C121.871 147.077 121.744 146.458 121.743 145.834C121.709 145.14 121.825 144.448 122.084 143.804C122.343 143.16 122.738 142.58 123.243 142.104H123.293C124.155 141.241 125.314 140.741 126.533 140.704C127.245 140.655 127.959 140.762 128.626 141.018C129.293 141.273 129.895 141.671 130.393 142.184L130.573 142.354C131.116 142.861 131.531 143.49 131.785 144.188C132.039 144.887 132.124 145.636 132.033 146.374Z" fill="#955724"/>
<path d="M238.103 321.704C242.403 328.914 244.203 338.114 244.873 347.854C245.763 337.254 243.003 328.424 238.103 321.704ZM244.893 384.464C244.893 382.644 244.893 380.824 244.893 379.014C244.883 380.874 244.873 382.704 244.893 384.464ZM209.463 386.164C206.043 386.164 202.633 386.164 199.203 386.074C206.043 386.287 212.883 386.287 219.723 386.074C216.303 386.164 212.893 386.164 209.463 386.164ZM196.763 308.974C200.873 307.671 205.151 306.977 209.463 306.914C210.813 306.914 212.113 307.034 213.373 307.164C207.773 306.387 202.068 307.002 196.763 308.954V308.974ZM175.963 332.164C174.952 337.236 174.326 342.377 174.093 347.544C174.753 338.314 176.433 329.544 180.333 322.544C178.477 325.554 177.008 328.786 175.963 332.164Z" fill="white"/>
<path d="M244.813 348.494C244.813 348.284 244.813 348.084 244.873 347.884C244.203 338.144 242.403 328.944 238.103 321.734C235.214 317.797 231.565 314.48 227.373 311.977C223.18 309.475 218.528 307.838 213.693 307.164H213.333C212.073 307.034 210.773 306.954 209.423 306.914C205.111 306.977 200.833 307.671 196.723 308.974L196.563 309.024C189.881 311.583 184.22 316.257 180.443 322.334C180.443 322.414 180.343 322.494 180.293 322.584C176.393 329.584 174.713 338.314 174.053 347.584C174.053 347.694 174.053 347.804 174.053 347.934C173.443 360.034 174.373 372.284 174.053 384.524C181.433 385.264 188.816 385.764 196.203 386.024C197.133 386.074 198.073 386.094 199.003 386.114H199.223C202.653 386.194 206.063 386.214 209.483 386.204C212.903 386.194 216.323 386.204 219.743 386.114H219.963C220.903 386.114 221.833 386.114 222.773 386.024C230.153 385.764 237.533 385.264 244.913 384.524C244.913 382.764 244.913 380.934 244.913 379.074V378.604C244.943 368.444 245.033 358.464 244.813 348.494ZM225.523 350.164C214.013 352.814 212.523 361.784 198.523 351.894C196.303 348.974 189.743 351.834 189.453 347.604C192.783 337.164 203.763 350.604 209.453 349.394C215.243 350.044 220.033 342.554 226.713 343.884C230.093 345.094 230.753 350.764 225.523 350.164Z" fill="#F3DFC8"/>
<path d="M225.533 350.164C214.013 352.814 212.533 361.784 198.533 351.894C196.323 348.974 189.753 351.824 189.473 347.604C192.793 337.164 203.773 350.604 209.473 349.394C215.253 350.044 220.053 342.543 226.733 343.883C230.093 345.083 230.753 350.764 225.533 350.164Z" fill="#553615"/>
<path d="M279.943 440.344C279.733 440.544 279.523 440.744 279.313 440.924C278.86 441.304 278.371 441.639 277.853 441.924C277.299 442.2 276.72 442.421 276.123 442.584C275.644 442.717 275.156 442.811 274.662 442.864C273.061 443.037 271.442 442.963 269.863 442.644L267.863 442.234L265.863 441.774C264.563 441.454 263.263 441.114 261.963 440.774L259.963 440.204C256.714 439.214 253.52 438.056 250.393 436.734C249.903 436.534 249.393 436.314 248.933 436.104C248.053 435.704 247.183 435.304 246.323 434.884L244.843 434.154L243.193 433.164C242.763 432.924 242.323 432.704 241.903 432.464L241.633 432.304L239.633 431.144L238.003 430.144L236.393 429.064L236.243 428.964L234.893 427.964L234.203 427.464L232.993 426.544L231.813 425.604C231.146 425.077 230.506 424.537 229.893 423.984C229.383 423.524 228.893 423.084 228.403 422.624L226.963 421.234C226.553 420.824 226.143 420.394 225.743 419.964C225.343 419.534 224.953 419.104 224.573 418.664C224.193 418.224 223.803 417.784 223.433 417.324C223.063 416.864 222.753 416.514 222.433 416.094L222.233 415.834C221.903 415.414 221.583 414.974 221.233 414.544L220.713 413.824L220.213 413.094C219.883 412.614 219.553 412.094 219.213 411.614C218.873 411.134 218.583 410.614 218.293 410.094C218.003 409.574 217.613 408.904 217.293 408.304C217.123 407.884 216.953 407.464 216.803 407.034C216.653 406.604 216.523 406.144 216.403 405.694C216.237 405.037 216.123 404.368 216.063 403.694C215.863 400.984 216.913 398.774 220.863 399.314L223.863 399.174C225.863 399.084 227.863 398.984 229.813 398.904L232.733 398.774C235.653 398.634 238.583 398.474 241.493 398.294C243.439 398.16 245.383 398.014 247.323 397.854C249.263 397.684 251.193 397.504 253.133 397.284C254.243 397.164 255.343 397.034 256.453 396.884C260.393 396.364 264.293 395.714 268.203 394.884C268.661 394.923 269.111 395.038 269.533 395.224C269.683 395.285 269.83 395.355 269.973 395.434C270.124 395.508 270.271 395.591 270.412 395.684C270.707 395.869 270.985 396.079 271.243 396.314C271.39 396.432 271.53 396.559 271.662 396.694C278.312 403.154 282.482 424.904 282.603 431.594C282.833 435.254 281.923 438.334 279.943 440.344Z" fill="#F3DFC8"/>
<path d="M292.193 134.634C269.473 135.394 269.893 168.634 292.353 169.694C314.543 168.724 314.523 135.284 292.193 134.634ZM296.923 147.334C296.672 148.202 296.163 148.973 295.463 149.544C295.408 149.6 295.348 149.65 295.283 149.694C294.207 150.541 292.842 150.933 291.481 150.785C290.12 150.638 288.871 149.962 288.003 148.904C287.282 148.072 286.894 147.004 286.913 145.904C286.91 145.154 287.075 144.414 287.397 143.737C287.719 143.06 288.189 142.464 288.773 141.994C288.809 141.949 288.853 141.912 288.903 141.884C289.885 141.032 291.165 140.604 292.463 140.694C293.136 140.71 293.798 140.872 294.403 141.167C295.009 141.462 295.544 141.884 295.973 142.404C296.575 143.055 296.983 143.862 297.15 144.733C297.318 145.604 297.239 146.505 296.923 147.334Z" fill="#955724"/>
<path d="M230.123 88.2737C230.533 97.4837 215.643 97.7637 215.873 88.4137C215.563 79.2337 230.083 79.2237 230.123 88.2737Z" fill="#553615"/>
</svg>
